<?xml version="1.0" encoding="UTF-8" standalone="no"?>
<svg
   xmlns:dc="http://purl.org/dc/elements/1.1/"
   xmlns:cc="http://creativecommons.org/ns#"
   xmlns:rdf="http://www.w3.org/1999/02/22-rdf-syntax-ns#"
   xmlns:svg="http://www.w3.org/2000/svg"
   xmlns="http://www.w3.org/2000/svg"
   xmlns:sodipodi="http://sodipodi.sourceforge.net/DTD/sodipodi-0.dtd"
   xmlns:inkscape="http://www.inkscape.org/namespaces/inkscape"
   width="210mm"
   height="297mm"
   viewBox="0 0 744.09448819 1052.3622047"
   id="svg2"
   version="1.1"
   inkscape:version="0.91 r13725"
   sodipodi:docname="Moxieopti.svg">
  <metadata
     id="metadata10">
    <rdf:RDF>
      <cc:Work
         rdf:about="">
        <dc:format>image/svg+xml</dc:format>
        <dc:type
           rdf:resource="http://purl.org/dc/dcmitype/StillImage" />
        <dc:title></dc:title>
      </cc:Work>
    </rdf:RDF>
  </metadata>
  <defs
     id="defs8" />
  <sodipodi:namedview
     pagecolor="#ffffff"
     bordercolor="#666666"
     borderopacity="1"
     objecttolerance="10"
     gridtolerance="10"
     guidetolerance="10"
     inkscape:pageopacity="0"
     inkscape:pageshadow="2"
     inkscape:window-width="1366"
     inkscape:window-height="746"
     id="namedview6"
     showgrid="false"
     inkscape:zoom="0.22425739"
     inkscape:cx="372.04724"
     inkscape:cy="526.1811"
     inkscape:window-x="-8"
     inkscape:window-y="-8"
     inkscape:window-maximized="1"
     inkscape:current-layer="svg2" />
  <path
     d="m 342.76727,593.07502 c 0,1.1161 -2.31917,13.30616 -5.18187,27.09067 -2.84823,13.78448 -4.6166,25.62667 -3.91357,26.32244 0.68848,0.68849 10.72608,-12.22631 22.30014,-28.69958 22.6625,-32.27251 32.16379,-39.77353 43.71611,-34.51197 3.89184,1.77561 17.93723,16.98785 31.21438,33.81623 13.2772,16.82838 24.60483,30.1273 25.18461,29.55473 0.5653,-0.57978 -9.27663,-30.35195 -21.90153,-66.16843 -12.61044,-35.802 -22.93791,-67.22656 -22.93791,-69.82114 0,-2.59453 2.85546,-7.1604 6.34143,-10.1463 3.47876,-2.98593 7.36334,-10.88556 8.62438,-17.55313 1.81184,-9.71147 1.07261,-12.99452 -3.71065,-16.495 -4.39916,-3.21785 -4.73253,-4.37017 -1.27555,-4.37017 7.22562,0 44.22344,-18.29233 57.54409,-28.4459 11.16093,-8.49391 30.31573,-34.42499 30.31573,-41.0346 0,-1.63788 -6.74004,4.51512 -14.95857,13.66855 -18.55325,20.61874 -63.16804,44.20891 -82.14887,43.41171 -30.14904,-1.2538 -48.13703,0.058 -55.77575,4.05854 -6.95746,3.63818 -10.90004,3.5512 -24.71353,-0.50731 -26.48185,-7.76919 -60.29808,-27.14142 -77.61929,-44.4626 l -16.08912,-16.08915 6.5951,12.9148 c 3.62366,7.08794 12.70462,18.42281 20.18388,25.1846 13.20473,11.92917 54.97129,34.28005 65.05236,34.81634 2.75403,0.14482 -0.62327,2.87721 -7.47925,6.07329 -9.5448,4.45712 -11.20443,6.30523 -7.07345,7.89965 2.97143,1.13058 8.02286,2.06548 11.23342,2.06548 5.26158,0 4.6818,3.71065 -5.94285,38.04867 -10.72608,34.67142 -12.87132,38.84589 -24.20619,47.04989 -22.80745,16.52401 -61.96498,18.48079 -78.10488,3.87737 -3.18884,-2.87721 -6.56609,-4.44264 -7.52275,-3.47876 -3.18884,3.18887 18.08942,18.55327 30.42444,21.98127 16.01669,4.44988 22.00301,4.27595 43.2088,-1.21753 9.80568,-2.53659 18.35035,-4.10205 18.9881,-3.47878 0.63777,0.65228 -2.88445,13.36415 -7.81268,28.27926 -4.94268,14.90782 -9.69696,29.31557 -10.58114,32.00434 -0.86969,2.68155 11.8132,-8.28372 28.20674,-24.3946 16.37906,-16.10368 29.78668,-28.36621 29.78668,-27.25012 z"
     id="path4"
     inkscape:connector-curvature="0"
     style="fill:#e2091e;stroke:#000000;stroke-width:1.44947326" />
</svg>
