<?xml version="1.0"?>
<svg width="6.999999999999999" height="6" xmlns="http://www.w3.org/2000/svg" xmlns:svg="http://www.w3.org/2000/svg" xmlns:xlink="http://www.w3.org/1999/xlink">
 <!-- Created with SVG-edit - http://svg-edit.googlecode.com/ -->
 <title>MoxieLogo</title>
 <defs>
  <symbol id="svg_5" viewBox="0 0 744.09448819 1052.3622047" height="297mm" width="210mm" xmlns="http://www.w3.org/2000/svg" xmlns:svg="http://www.w3.org/2000/svg">

   <metadata id="svg_4">image/svg+xml</metadata>
   <g id="svg_2">
    <path fill="#e2091e" stroke="#000000" stroke-width="0.2" stroke-miterlimit="4" d="m349.813385,529.656738c0,0.153992 -0.321808,1.836121 -0.715118,3.737976c-0.393341,1.901917 -0.636841,3.536316 -0.541138,3.632019c0.095734,0.095703 1.480682,-1.68634 3.077637,-3.960144c3.127502,-4.452942 4.438416,-5.487671 6.032593,-4.761292c0.536438,0.244446 2.474243,2.343933 4.306183,4.665588c1.83194,2.321594 3.395752,4.156189 3.475128,4.076843c0.079376,-0.079407 -1.279846,-4.187195 -3.020477,-9.12854c-1.740631,-4.941284 -3.164795,-9.277161 -3.164795,-9.635193c0,-0.358032 0.393616,-0.988037 0.874725,-1.399963c0.481079,-0.411926 1.015961,-1.501831 1.188599,-2.422058c0.251221,-1.339172 0.149323,-1.793396 -0.510742,-2.276001c-0.60675,-0.443695 -0.653259,-0.603088 -0.176086,-0.603333c0.996613,-0.000549 6.102173,-2.523407 7.941559,-3.924225c1.539276,-1.172272 4.181946,-4.750336 4.181946,-5.662201c0,-0.2258 -0.929199,0.622925 -2.06488,1.886078c-2.557281,2.844299 -8.714752,6.098267 -11.334015,5.989563c-4.158722,-0.172607 -6.641266,0.007996 -7.695374,0.560516c-0.957733,0.501831 -1.503204,0.490723 -3.410431,-0.069397c-3.653046,-1.072815 -8.318726,-3.746307 -10.708618,-6.1362l-2.218658,-2.218658l0.908386,1.780609c0.499634,0.97934 1.75296,2.54361 2.785187,3.476166c1.821594,1.645721 7.585205,4.730835 8.975708,4.804504c0.378204,0.019958 -0.086609,0.397583 -1.03302,0.839111c-1.316589,0.614136 -1.545746,0.869812 -0.975677,1.088562c0.40976,0.157227 1.107178,0.285889 1.549835,0.285889c0.726318,0 0.646362,0.512268 -0.819183,5.249939c-1.479858,4.783875 -1.776337,5.360291 -3.339447,6.492615c-3.148315,2.28064 -8.552643,2.548462 -10.778442,0.534119c-0.438293,-0.396606 -0.905457,-0.61261 -1.038147,-0.479919c-0.439514,0.439514 2.496246,2.56073 4.198242,3.033447c2.210602,0.613953 3.036591,0.590637 5.962341,-0.168335c1.352997,-0.350952 2.531769,-0.566284 2.619537,-0.478516c0.087799,0.08783 -0.397308,1.843018 -1.077911,3.900574c-0.680603,2.057617 -1.3367,4.0448 -1.458008,4.416077c-0.121277,0.371216 1.629639,-1.143311 3.891022,-3.365601c2.261322,-2.222351 4.111542,-3.914673 4.111542,-3.760681l0,0.000061z" id="svg_3"/>
   </g>
  </symbol>
 </defs>
 <g>
  <title>Layer 1</title>
  <use x="-353.202144" y="-535.221297" transform="matrix(0.15203890204429626,0,0,0.15203890204429626,0,0) " xlink:href="#svg_5" id="svg_6"/>
 </g>
</svg>