<?xml version="1.0" encoding="UTF-8" standalone="no"?>
<svg
   xmlns:dc="http://purl.org/dc/elements/1.1/"
   xmlns:cc="http://creativecommons.org/ns#"
   xmlns:rdf="http://www.w3.org/1999/02/22-rdf-syntax-ns#"
   xmlns:svg="http://www.w3.org/2000/svg"
   xmlns="http://www.w3.org/2000/svg"
   xmlns:sodipodi="http://sodipodi.sourceforge.net/DTD/sodipodi-0.dtd"
   xmlns:inkscape="http://www.inkscape.org/namespaces/inkscape"
   width="42.333332mm"
   height="36.049835mm"
   viewBox="0 0 150 127.73564"
   id="svg2"
   version="1.1"
   inkscape:version="0.91 r13725"
   sodipodi:docname="MoxieOpti150.svg">
  <metadata
     id="metadata10">
    <rdf:RDF>
      <cc:Work
         rdf:about="">
        <dc:format>image/svg+xml</dc:format>
        <dc:type
           rdf:resource="http://purl.org/dc/dcmitype/StillImage" />
        <dc:title></dc:title>
      </cc:Work>
    </rdf:RDF>
  </metadata>
  <defs
     id="defs8" />
  <sodipodi:namedview
     pagecolor="#ffffff"
     bordercolor="#666666"
     borderopacity="1"
     objecttolerance="10"
     gridtolerance="10"
     guidetolerance="10"
     inkscape:pageopacity="0"
     inkscape:pageshadow="2"
     inkscape:window-width="446"
     inkscape:window-height="403"
     id="namedview6"
     showgrid="false"
     inkscape:zoom="1.0074671"
     inkscape:cx="98.486212"
     inkscape:cy="-21.311706"
     inkscape:window-x="744"
     inkscape:window-y="257"
     inkscape:window-maximized="0"
     inkscape:current-layer="svg2"
     inkscape:snap-bbox="true"
     inkscape:bbox-nodes="true"
     inkscape:bbox-paths="true"
     inkscape:snap-bbox-midpoints="true"
     inkscape:snap-global="false"
     fit-margin-top="0"
     fit-margin-left="0"
     fit-margin-right="0"
     fit-margin-bottom="0"
     inkscape:showpageshadow="false" />
  <path
     d="m 66.572572,100.6109 c 0,0.55742 -1.15827,6.64553 -2.588,13.52996 -1.42249,6.88441 -2.30568,12.79879 -1.95456,13.14628 0.34385,0.34385 5.35695,-6.10621 11.13741,-14.3335 11.31838,-16.117944 16.06363,-19.864194 21.83323,-17.236404 1.94372,0.8868 8.958438,8.484294 15.589468,16.888924 6.63107,8.40464 12.28845,15.04655 12.57801,14.76059 0.28233,-0.28956 -4.63305,-15.15873 -10.93833,-33.046654 C 105.93174,76.43942 100.77387,60.74499 100.77387,59.44917 c 0,-1.29579 1.42611,-3.57614 3.16711,-5.06739 1.73741,-1.49127 3.67749,-5.4366 4.3073,-8.7666 0.90489,-4.85022 0.53569,-6.48989 -1.85322,-8.23814 -2.19708,-1.6071 -2.36358,-2.1826 -0.63705,-2.1826 3.60871,0 22.08661,-9.135781 28.73938,-14.206801 5.57412,-4.24214 15.14065,-17.1929601 15.14065,-20.49401014 0,-0.81801 -3.36619,2.25500004 -7.47079,6.82652004 -9.2661,10.2976601 -31.54816,22.0793511 -41.0278,21.6812111 -15.057408,-0.626191 -24.041188,0.0289 -27.856218,2.02696 -3.47478,1.81703 -5.44382,1.77359 -12.34273,-0.25336 C 47.714612,26.894769 30.825692,17.219649 22.174922,8.5688989 l -8.03542,-8.03544004 3.2938,6.45007004 c 1.80977,3.5399401 6.34509,9.2009401 10.08048,12.5780001 6.59487,5.95782 27.45444,17.120561 32.48925,17.388401 1.37546,0.0723 -0.31128,1.43697 -3.73537,3.0332 -4.76699,2.22603 -5.59586,3.14904 -3.53271,3.94534 1.48402,0.56465 4.00687,1.03157 5.61033,1.03157 2.6278,0 2.33824,1.85322 -2.96805,19.00273 -5.35695,17.31603 -6.42836,19.40089 -12.08936,23.498226 -11.39077,8.25263 -30.94731,9.22991 -39.0080997,1.93649 -1.59261,-1.43697 -3.27931,-2.2188 -3.75711002,-1.73741 -1.59259998,1.59263 9.03444002,9.2661 15.19495972,10.97816 7.99924,2.222414 10.98901,2.135554 21.57987,-0.60807 4.89727,-1.26686 9.16476,-2.0487 9.48327,-1.73742 0.31852,0.32577 -1.44059,6.674494 -3.90191,14.123584 -2.46853,7.44544 -4.84297,14.64114 -5.28456,15.984 -0.43435,1.33926 5.89989,-4.13715 14.08736,-12.18345 8.18023,-8.0427 14.87643,-14.16701 14.87643,-13.60959 z"
     id="path4"
     inkscape:connector-curvature="0"
     style="fill:#e2091e;stroke:#000000;stroke-width:0.72391379;image-rendering:optimizeQuality" />
</svg>
